<svg width="25" height="25" viewBox="0 0 25 25" fill="none" xmlns="http://www.w3.org/2000/svg">
<path d="M12.472 2.24703C15.802 2.24703 16.1969 2.2595 17.5117 2.31978C18.3024 2.32917 19.0857 2.47436 19.8273 2.74903C20.3653 2.95657 20.8539 3.27445 21.2617 3.68222C21.6695 4.08998 21.9873 4.5786 22.1949 5.11662C22.4695 5.85821 22.6147 6.64148 22.6241 7.43224C22.6844 8.747 22.6969 9.14194 22.6969 12.473C22.6969 15.804 22.6844 16.1969 22.6241 17.5117C22.6147 18.3024 22.4695 19.0857 22.1949 19.8273C21.9873 20.3653 21.6695 20.8539 21.2617 21.2617C20.8539 21.6695 20.3653 21.9873 19.8273 22.1949C19.0857 22.4695 18.3024 22.6147 17.5117 22.6241C16.1969 22.6844 15.802 22.6969 12.472 22.6969C9.14194 22.6969 8.747 22.6844 7.43224 22.6241C6.64148 22.6147 5.85821 22.4695 5.11662 22.1949C4.5786 21.9873 4.08998 21.6695 3.68222 21.2617C3.27445 20.8539 2.95657 20.3653 2.74903 19.8273C2.47436 19.0857 2.32917 18.3024 2.31978 17.5117C2.2595 16.1969 2.24703 15.802 2.24703 12.472C2.24703 9.14194 2.2595 8.747 2.31978 7.43224C2.32917 6.64148 2.47436 5.85821 2.74903 5.11662C2.95657 4.5786 3.27445 4.08998 3.68222 3.68222C4.08998 3.27445 4.5786 2.95657 5.11662 2.74903C5.85821 2.47436 6.64148 2.32917 7.43224 2.31978C8.747 2.2595 9.14194 2.24703 12.472 2.24703ZM12.472 0C9.08478 0 8.65969 0.0145506 7.32935 0.0748317C6.29498 0.0957182 5.27164 0.291812 4.30282 0.654778C3.47419 0.9752 2.72165 1.46522 2.09344 2.09344C1.46522 2.72165 0.9752 3.47419 0.654778 4.30282C0.291697 5.27197 0.095601 6.29567 0.0748317 7.33039C0.0145506 8.66073 0 9.08374 0 12.472C0 15.8602 0.0145506 16.2842 0.0748317 17.6146C0.0957182 18.6489 0.291812 19.6723 0.654778 20.6411C0.9752 21.4697 1.46522 22.2223 2.09344 22.8505C2.72165 23.4787 3.47419 23.9687 4.30282 24.2891C5.27197 24.6522 6.29567 24.8483 7.33039 24.8691C8.66073 24.9294 9.08478 24.9439 12.472 24.9439C15.8591 24.9439 16.2842 24.9294 17.6146 24.8691C18.6493 24.8483 19.673 24.6522 20.6421 24.2891C21.4708 23.9687 22.2233 23.4787 22.8515 22.8505C23.4797 22.2223 23.9697 21.4697 24.2902 20.6411C24.6529 19.6719 24.8486 18.6482 24.8691 17.6135C24.9294 16.2832 24.9439 15.8602 24.9439 12.472C24.9439 9.08374 24.9294 8.65969 24.8691 7.32935C24.8482 6.29498 24.6521 5.27164 24.2891 4.30282C23.9687 3.47419 23.4787 2.72165 22.8505 2.09344C22.2223 1.46522 21.4697 0.9752 20.6411 0.654778C19.6719 0.292051 18.6482 0.0963075 17.6135 0.075871C16.2832 0.0135112 15.8602 0 12.472 0Z" fill="#00AEFF"/>
</svg>
