<svg width="28" height="22" viewBox="0 0 28 22" fill="none" xmlns="http://www.w3.org/2000/svg">
<path d="M25.1233 5.48277C25.1419 5.72397 25.1419 5.96379 25.1419 6.20361C25.1419 13.5429 19.3672 22 8.81376 22C5.56239 22 2.54183 21.089 0 19.5067C0.461632 19.5577 0.906167 19.5756 1.38632 19.5756C3.96946 19.5817 6.47945 18.7461 8.5117 17.2036C7.31405 17.1826 6.15307 16.8004 5.19085 16.1103C4.22864 15.4201 3.51323 14.4566 3.14451 13.3541C3.49929 13.4051 3.85549 13.4395 4.22878 13.4395C4.74313 13.4395 5.26033 13.3706 5.74048 13.2507C4.44073 12.9969 3.272 12.3154 2.433 11.3221C1.594 10.3288 1.13655 9.08509 1.13841 7.80241V7.73349C1.90352 8.1456 2.79117 8.40333 3.73153 8.43779C2.94375 7.93139 2.29779 7.24424 1.85129 6.43763C1.40479 5.63102 1.17162 4.73003 1.1726 3.81506C1.1726 2.78411 1.45614 1.83862 1.95339 1.01441C3.39548 2.73039 5.19408 4.13422 7.23272 5.13498C9.27136 6.13574 11.5046 6.71111 13.7877 6.82383C13.6994 6.41035 13.6452 5.98171 13.6452 5.55169C13.6449 4.82253 13.793 4.10044 14.0813 3.42672C14.3696 2.75299 14.7923 2.14084 15.3253 1.62524C15.8583 1.10965 16.4911 0.70073 17.1876 0.42186C17.8841 0.14299 18.6305 -0.00036163 19.3843 6.85089e-07C21.037 6.85089e-07 22.5288 0.669841 23.5774 1.75316C24.8623 1.51282 26.0944 1.0591 27.2192 0.412104C26.7909 1.69502 25.8938 2.78288 24.6959 3.47187C25.8354 3.34614 26.9491 3.05626 28 2.61183C27.2151 3.71872 26.2425 4.68936 25.1233 5.48277Z" fill="#00AEFF"/>
</svg>
